<?xml version="1.0" standalone="no"?>
<!DOCTYPE svg PUBLIC "-//W3C//DTD SVG 20010904//EN"
 "http://www.w3.org/TR/2001/REC-SVG-20010904/DTD/svg10.dtd">
<svg version="1.0" xmlns="http://www.w3.org/2000/svg"
 width="600.000000pt" height="600.000000pt" viewBox="0 0 600.000000 600.000000"
 preserveAspectRatio="xMidYMid meet">

<g transform="translate(0.000000,600.000000) scale(0.100000,-0.100000)"
fill="#000000" stroke="none">
<path d="M2875 4699 c-437 -24 -856 -209 -1177 -518 -161 -154 -277 -306 -364
-474 l-37 -72 -72 -1 c-221 -4 -418 -165 -470 -385 -12 -51 -15 -139 -15 -430
0 -202 4 -390 10 -420 16 -85 74 -193 140 -259 93 -93 255 -158 369 -148 35 3
37 2 72 -65 19 -37 47 -80 61 -94 54 -53 168 -36 209 31 32 52 25 95 -37 218
-194 386 -229 826 -98 1229 237 735 976 1205 1736 1104 366 -48 672 -200 939
-465 228 -227 375 -504 446 -840 25 -122 26 -469 0 -590 -32 -155 -89 -311
-164 -459 -121 -236 -224 -355 -374 -430 -113 -57 -179 -65 -458 -57 l-234 7
-45 40 c-66 58 -116 69 -306 69 -89 0 -178 -3 -199 -6 -64 -11 -137 -63 -169
-120 -56 -100 -44 -191 31 -241 l34 -23 617 0 c698 0 693 0 857 80 194 95 330
243 468 505 l57 110 72 1 c224 2 428 175 475 402 15 71 15 763 0 834 -47 227
-251 400 -475 402 l-71 1 -34 65 c-89 172 -213 334 -371 485 -380 365 -876
544 -1423 514z"/>
<path d="M2243 3796 c-106 -35 -199 -122 -308 -291 -98 -150 -167 -320 -202
-493 -24 -120 -24 -374 0 -495 37 -186 108 -326 187 -369 53 -29 178 -18 476
41 526 106 681 106 1207 1 256 -52 387 -68 451 -56 112 21 195 200 226 485 41
374 -78 746 -333 1043 -52 60 -80 83 -134 110 -64 31 -73 33 -173 32 -87 -1
-134 -8 -275 -43 -318 -78 -409 -78 -725 -1 -190 46 -329 59 -397 36z m196
-616 c102 -52 152 -171 119 -284 -18 -59 -99 -138 -161 -155 -207 -58 -379
173 -266 356 62 99 203 138 308 83z m1293 16 c101 -30 170 -121 170 -224 0
-94 -38 -161 -116 -207 -98 -57 -211 -40 -289 44 -86 92 -90 217 -9 311 65 77
152 104 244 76z"/>
</g>
</svg>
