<?xml version="1.0" standalone="no"?>
<!DOCTYPE svg PUBLIC "-//W3C//DTD SVG 20010904//EN"
 "http://www.w3.org/TR/2001/REC-SVG-20010904/DTD/svg10.dtd">
<svg version="1.0" xmlns="http://www.w3.org/2000/svg"
 width="256.000000pt" height="256.000000pt" viewBox="0 0 256.000000 256.000000"
 preserveAspectRatio="xMidYMid meet">

<g transform="translate(0.000000,256.000000) scale(0.100000,-0.100000)"
fill="#000000" stroke="none">
<path d="M505 1824 c-36 -8 -100 -26 -120 -35 -11 -5 -31 -13 -45 -19 -122
-49 -260 -215 -293 -352 -13 -56 -13 -240 0 -296 11 -44 55 -139 83 -176 18
-24 111 -117 132 -131 53 -37 106 -63 158 -77 69 -19 143 -29 152 -20 5 5 7
60 6 123 l-3 114 -45 5 c-49 6 -129 48 -171 89 -14 14 -39 49 -55 76 -26 46
-29 58 -29 145 0 87 3 99 29 145 39 66 71 97 140 134 55 30 60 31 191 31 l135
0 0 -200 0 -200 120 0 120 0 0 325 0 325 -242 -1 c-134 -1 -252 -3 -263 -5z"/>
<path d="M1180 1825 c0 -4 14 -39 36 -92 8 -17 14 -35 14 -40 0 -5 11 -33 25
-61 14 -29 25 -56 25 -61 0 -5 7 -22 15 -37 8 -16 15 -37 15 -46 0 -10 5 -18
10 -18 6 0 10 -7 10 -16 0 -9 7 -31 15 -50 29 -65 43 -99 60 -149 10 -27 22
-55 27 -61 15 -20 -17 -24 -173 -24 l-149 0 0 -105 0 -105 208 0 207 0 13 -32
c7 -18 20 -48 28 -66 8 -18 14 -39 14 -47 0 -8 4 -15 9 -15 5 0 13 -15 16 -32
12 -56 17 -58 151 -58 68 0 124 4 124 9 0 5 -7 22 -15 37 -8 16 -15 37 -15 47
0 9 -4 17 -10 17 -5 0 -10 7 -10 16 0 9 -7 32 -16 52 -9 21 -22 52 -30 70 -8
18 -14 39 -14 47 0 8 -4 15 -10 15 -5 0 -10 7 -10 16 0 9 -6 30 -14 47 -8 18
-29 68 -46 112 -18 44 -38 94 -46 112 -8 17 -14 38 -14 47 0 9 -4 16 -10 16
-5 0 -10 7 -10 15 0 8 -6 29 -14 47 -8 18 -22 51 -31 73 -9 22 -20 47 -24 55
-5 9 -12 30 -16 48 -3 18 -11 32 -16 32 -5 0 -9 9 -9 19 0 11 -6 32 -14 48
-24 46 -46 100 -46 112 0 7 -42 11 -130 11 -71 0 -130 -2 -130 -5z"/>
<path d="M774 947 c-2 -7 -3 -62 -2 -123 l3 -109 118 -3 117 -3 0 126 0 125
-115 0 c-86 0 -117 -3 -121 -13z"/>
</g>
</svg>
