<?xml version="1.0" standalone="no"?>
<!DOCTYPE svg PUBLIC "-//W3C//DTD SVG 20010904//EN"
 "http://www.w3.org/TR/2001/REC-SVG-20010904/DTD/svg10.dtd">
<svg version="1.0" xmlns="http://www.w3.org/2000/svg"
 width="500.000000pt" height="500.000000pt" viewBox="0 0 500.000000 500.000000"
 preserveAspectRatio="xMidYMid meet">

<g transform="translate(0.000000,500.000000) scale(0.100000,-0.100000)"
fill="#000000" stroke="none">
<path d="M2360 4070 c-402 -43 -735 -198 -979 -456 -73 -76 -81 -89 -81 -124
0 -30 6 -43 26 -59 51 -40 74 -30 186 82 116 114 215 185 363 257 99 48 254
98 370 120 113 21 321 24 450 6 318 -43 576 -167 793 -383 113 -112 135 -122
186 -82 20 16 26 29 26 61 0 38 -6 46 -107 147 -271 267 -631 418 -1043 434
-63 3 -149 2 -190 -3z"/>
<path d="M2382 3083 c-50 -17 -136 -98 -156 -147 -22 -53 -29 -131 -15 -158
13 -22 13 -21 20 22 4 25 17 62 30 84 l22 38 63 -5 c35 -2 82 -14 106 -25 45
-21 105 -42 119 -42 5 0 16 14 24 30 41 80 103 54 126 -53 16 -70 41 -109 59
-91 17 16 17 121 1 177 -19 64 -101 148 -167 171 -59 20 -174 20 -232 -1z"/>
<path d="M1041 2851 c-12 -8 -15 -66 -16 -343 -1 -183 1 -378 4 -433 l6 -100
108 -3 107 -3 0 446 0 445 -97 0 c-54 0 -104 -4 -112 -9z"/>
<path d="M1280 2415 l0 -446 33 3 c31 3 32 4 38 63 9 79 9 694 1 765 -7 53 -8
55 -39 58 l-33 3 0 -446z"/>
<path d="M3653 2848 c-11 -17 -16 -703 -6 -798 l8 -75 33 -3 32 -3 0 445 0
446 -29 0 c-17 0 -33 -6 -38 -12z"/>
<path d="M3745 2415 l0 -446 110 3 110 3 3 434 c2 341 0 436 -10 443 -7 4 -58
8 -113 8 l-100 0 0 -445z"/>
<path d="M2477 1164 c-12 -13 -8 -199 5 -212 18 -18 322 -17 337 2 8 9 11 48
9 112 l-3 99 -171 3 c-93 1 -173 -1 -177 -4z"/>
</g>
</svg>
